<?xml version="1.0" standalone="no"?>
<!DOCTYPE svg PUBLIC "-//W3C//DTD SVG 20010904//EN"
 "http://www.w3.org/TR/2001/REC-SVG-20010904/DTD/svg10.dtd">
<svg version="1.0" xmlns="http://www.w3.org/2000/svg"
 width="260.000000pt" height="260.000000pt" viewBox="0 0 260.000000 260.000000"
 preserveAspectRatio="xMidYMid meet">
<metadata>
Created by potrace 1.14, written by Peter Selinger 2001-2017
</metadata>
<g transform="translate(0.000000,260.000000) scale(0.100000,-0.100000)"
fill="#000000" stroke="none">
<path d="M1646 2124 c-3 -9 -6 -29 -6 -45 l0 -29 -250 0 -250 0 0 -35 0 -35
-252 -2 -253 -3 -3 -47 -3 -48 -250 0 -249 0 0 -50 0 -50 -34 0 c-18 0 -39 -6
-45 -14 -8 -9 -10 -123 -9 -402 l3 -389 43 -3 42 -3 0 -50 0 -49 40 0 c38 0
40 -2 40 -31 0 -49 16 -69 56 -69 35 0 35 -1 34 -37 -3 -60 -2 -62 38 -65 36
-3 37 -4 42 -48 5 -44 6 -45 43 -48 35 -3 37 -5 37 -40 0 -49 9 -60 50 -64 34
-3 35 -4 38 -51 l3 -47 462 2 462 3 3 47 3 48 248 0 249 0 6 23 c3 12 6 34 6
49 l0 28 248 2 247 3 3 48 3 47 38 0 c26 0 41 5 45 16 8 20 8 758 0 778 -4 11
-19 16 -45 16 l-38 0 -3 48 c-3 46 -3 47 -40 50 -36 3 -37 4 -40 50 l-3 47
-44 3 c-42 3 -43 4 -37 33 9 45 -8 69 -49 69 -33 0 -34 1 -37 48 l-3 47 -44 3
-43 3 5 38 c6 49 0 59 -43 63 -33 3 -35 5 -40 48 -5 43 -6 45 -41 48 -32 3
-38 7 -43 33 l-6 29 -164 0 c-140 0 -165 -2 -170 -16z m324 -80 c6 -14 10 -36
10 -50 0 -21 4 -24 39 -24 l40 0 3 -47 3 -48 43 -3 c43 -3 44 -3 41 -40 -3
-60 -2 -62 40 -62 l40 0 3 -47 c3 -48 3 -48 41 -51 35 -3 37 -5 37 -37 0 -55
8 -65 51 -65 36 0 39 -2 39 -29 0 -65 23 -61 -369 -61 -196 0 -362 -4 -369 -9
-8 -4 -16 -27 -19 -49 l-6 -42 -246 -2 -246 -3 -3 -47 -3 -48 -239 0 c-131 0
-245 -3 -254 -6 -11 -4 -16 -19 -16 -50 0 -44 0 -44 -35 -44 -34 0 -35 1 -35
38 0 49 -9 60 -50 64 -33 3 -35 5 -40 48 -5 44 -6 45 -42 48 -36 3 -37 4 -40
50 -3 47 -3 47 -43 52 -39 5 -40 6 -45 50 l-5 45 -77 3 -78 3 0 94 0 95 250 0
250 0 0 50 0 50 249 0 c275 0 261 -4 261 66 l0 34 238 0 c172 0 241 3 250 12
7 7 12 29 12 50 l0 38 155 0 155 0 10 -26z"/>
</g>
</svg>
